<mxfile host="app.diagrams.net" modified="2023-11-02T14:33:44.425Z" agent="Mozilla/5.0 (Windows NT 10.0; Win64; x64) AppleWebKit/537.36 (KHTML, like Gecko) Chrome/118.0.0.0 Safari/537.36" version="22.0.8" etag="ieARh8cfNDE1nJ6LBaB8" type="github">
  <diagram name="Pagina-1" id="kObJYDHDt_bQQeQ_TMJU">
    <mxGraphModel>
      <root>
        <mxCell id="0" />
        <mxCell id="1" parent="0" />
      </root>
    </mxGraphModel>
  </diagram>
</mxfile>
